<?xml version="1.0" encoding="UTF-8" standalone="no"?>
<!-- Generator: Adobe Illustrator 19.0.0, SVG Export Plug-In . SVG Version: 6.00 Build 0)  -->

<svg
   xmlns:dc="http://purl.org/dc/elements/1.1/"
   xmlns:cc="http://creativecommons.org/ns#"
   xmlns:rdf="http://www.w3.org/1999/02/22-rdf-syntax-ns#"
   xmlns:svg="http://www.w3.org/2000/svg"
   xmlns="http://www.w3.org/2000/svg"
   xmlns:sodipodi="http://sodipodi.sourceforge.net/DTD/sodipodi-0.dtd"
   xmlns:inkscape="http://www.inkscape.org/namespaces/inkscape"
   version="1.1"
   id="Layer_1"
   x="0px"
   y="0px"
   viewBox="0 0 303.2 150"
   xml:space="preserve"
   sodipodi:docname="unbabel.svg"
   width="303.20001"
   height="150"
   inkscape:version="0.92.1 r"><metadata
     id="metadata4603"><rdf:RDF><cc:Work
         rdf:about=""><dc:format>image/svg+xml</dc:format><dc:type
           rdf:resource="http://purl.org/dc/dcmitype/StillImage" /><dc:title></dc:title></cc:Work></rdf:RDF></metadata><defs
     id="defs4601" /><sodipodi:namedview
     pagecolor="#ffffff"
     bordercolor="#666666"
     borderopacity="1"
     objecttolerance="10"
     gridtolerance="10"
     guidetolerance="10"
     inkscape:pageopacity="0"
     inkscape:pageshadow="2"
     inkscape:window-width="1600"
     inkscape:window-height="852"
     id="namedview4599"
     showgrid="false"
     inkscape:zoom="1.187335"
     inkscape:cx="151.60001"
     inkscape:cy="36.799999"
     inkscape:window-x="0"
     inkscape:window-y="1"
     inkscape:window-maximized="1"
     inkscape:current-layer="g4557" /><style
     type="text/css"
     id="style4541">
	.st0{fill:#0C385A;}
	.st1{fill:url(#SVGID_1_);}
	.st2{fill:url(#SVGID_2_);}
	.st3{fill:url(#SVGID_3_);}
</style><g
     id="g4557"
     transform="translate(0,76.4)"><path
       class="st0"
       d="m 141.2,3.2492485 c 0,0.9 -0.1,1.8 -0.3,2.7 -0.2,0.8 -0.6,1.6 -1.1,2.2 -0.5,0.7 -1.2,1.2 -2,1.6 -0.8,0.4000005 -1.8,0.6000005 -3,0.6000005 -1.2,0 -2.2,-0.2 -3,-0.6000005 -0.8,-0.4 -1.5,-0.9 -2,-1.6 -0.5,-0.7 -0.9,-1.4 -1.1,-2.3 -0.2,-0.8 -0.4,-1.7 -0.4,-2.7 V -17.550751 H 120 V 3.8492485 c 0,2.1 0.3,4 1,5.7 0.7,1.7000005 1.7,3.2000005 2.9,4.4000005 1.3,1.199999 2.8,2.199999 4.6,2.799999 1.8,0.7 3.9,1 6.1,1 2.2,0 4.3,-0.3 6.1,-1 1.8,-0.7 3.4,-1.6 4.7,-2.799999 1.3,-1.2 2.3,-2.7 3,-4.4000005 0.7,-1.7 1,-3.6 1,-5.7 V -17.550751 h -8.3 V 3.2492485 Z"
       id="path4543"
       inkscape:connector-curvature="0"
       style="fill:#0c385a" /><path
       class="st0"
       d="m 205.2,-4.2507515 c -1,-1.2 -2.2,-2.1 -3.6,-2.8 -1.4,-0.7 -3,-1 -4.7,-1 -1.8,0 -3.3,0.3 -4.5,1 -1.2,0.7 -2.2,1.4 -2.9,2.2 h -0.1 V -19.950751 h -8 v 36.699999 h 7.3 v -3.199999 h 0.1 c 0.8,1.2 1.9,2.199999 3.3,2.799999 1.4,0.7 3,1 4.6,1 1.8,0 3.4,-0.4 4.9,-1.1 1.4,-0.7 2.6,-1.699999 3.6,-2.799999 1,-1.2 1.7,-2.5 2.3,-4.1000005 0.5,-1.6 0.8,-3.2 0.8,-4.9 0,-1.7 -0.3,-3.3 -0.8,-4.79999996 -0.5,-1.30000004 -1.3,-2.70000004 -2.3,-3.90000004 z m -4.9,11.2 c -0.2,0.8 -0.6,1.4 -1.1,2 -0.5,0.6 -1.1,1 -1.8,1.4000005 -0.7,0.4 -1.5,0.5 -2.5,0.5 -0.9,0 -1.7,-0.2 -2.4,-0.5 -0.7,-0.4000005 -1.3,-0.8000005 -1.8,-1.4000005 -0.5,-0.6 -0.9,-1.2 -1.2,-2 -0.3,-0.7 -0.4,-1.5 -0.4,-2.3 0,-0.8 0.1,-1.5 0.4,-2.3 0.3,-0.8 0.7,-1.39999996 1.2,-1.99999996 0.5,-0.6 1.1,-1.1 1.8,-1.40000004 0.7,-0.4 1.5,-0.5 2.4,-0.5 0.9,0 1.8,0.2 2.5,0.5 0.7,0.40000004 1.3,0.80000004 1.8,1.40000004 0.5,0.6 0.8,1.19999996 1.1,1.99999996 0.2,0.7 0.4,1.5 0.4,2.3 -0.1,0.8 -0.2,1.6 -0.4,2.3 z"
       id="path4545"
       inkscape:connector-curvature="0"
       style="fill:#0c385a" /><path
       class="st0"
       d="m 230.6,-5.0507515 c -0.9,-1 -2,-1.8 -3.4,-2.3 -1.4,-0.5 -3.1,-0.8 -5.2,-0.8 -2,0 -3.9,0.3 -5.8,1 -1.9,0.7 -3.5,1.7 -5,3.1 l 4,4.30000004 c 0.7,-0.7 1.6,-1.30000004 2.7,-1.80000004 1,-0.5 2.1,-0.7 3.3,-0.7 1.2,0 2.3,0.3 3.1,0.9 0.8,0.60000004 1.3,1.50000004 1.3,2.7 v 0.4 c -1.7,0 -3.5,0.1 -5.4,0.3 -1.8,0.2 -3.5,0.6 -5,1.2 -1.5,0.6 -2.7,1.4 -3.7,2.5 -1,1.1 -1.4,2.5 -1.4,4.2 0,1.4000005 0.3,2.6000005 0.8,3.6000005 0.6,1 1.3,1.699999 2.1,2.299999 0.9,0.6 1.8,1 2.8,1.3 1,0.3 2,0.4 3,0.4 1.5,0 2.8,-0.3 4.1,-0.8 1.2,-0.5 2.2,-1.3 2.8,-2.299999 h 0.1 v 2.599999 h 7.3 V 4.8492485 c 0,-2.2 -0.2,-4.09999996 -0.6,-5.69999996 -0.4,-1.80000004 -1,-3.10000004 -1.9,-4.20000004 z m -4.8,12.2 c 0,1.5 -0.4,2.7 -1.3,3.6000005 -0.9,0.9 -2.1,1.3 -3.7,1.3 -0.4,0 -0.8,0 -1.2,-0.1 -0.4,-0.1 -0.8,-0.2 -1.1,-0.4 -0.3,-0.2 -0.6,-0.5 -0.8,-0.8 -0.2,-0.3 -0.3,-0.7 -0.3,-1.2000005 0,-0.7 0.2,-1.3 0.7,-1.7 0.5,-0.4 1,-0.8 1.7,-1 0.7,-0.2 1.5,-0.4 2.4,-0.5 0.9,-0.1 1.8,-0.1 2.7,-0.1 h 1 z"
       id="path4547"
       inkscape:connector-curvature="0"
       style="fill:#0c385a" /><path
       class="st0"
       d="m 261.2,-4.2507515 c -1,-1.2 -2.2,-2.1 -3.6,-2.8 -1.4,-0.7 -3,-1 -4.7,-1 -1.8,0 -3.3,0.3 -4.5,1 -1.2,0.7 -2.2,1.4 -2.9,2.2 h -0.1 V -19.950751 h -8 v 36.799999 h 7.3 v -3.199999 h 0.1 c 0.8,1.2 1.9,2.199999 3.3,2.799999 1.4,0.7 3,1 4.6,1 1.8,0 3.4,-0.4 4.9,-1.1 1.4,-0.7 2.6,-1.699999 3.6,-2.799999 1,-1.2 1.7,-2.6 2.3,-4.1000005 0.5,-1.6 0.8,-3.2 0.8,-4.9 0,-1.7 -0.3,-3.3 -0.8,-4.79999996 -0.5,-1.40000004 -1.3,-2.80000004 -2.3,-4.00000004 z m -4.9,11.2 c -0.2,0.8 -0.6,1.4 -1.1,2 -0.5,0.6 -1.1,1 -1.8,1.4000005 -0.7,0.4 -1.5,0.5 -2.5,0.5 -0.9,0 -1.7,-0.2 -2.4,-0.5 -0.7,-0.4000005 -1.3,-0.8000005 -1.8,-1.4000005 -0.5,-0.6 -0.9,-1.2 -1.2,-2 -0.3,-0.7 -0.4,-1.5 -0.4,-2.3 0,-0.8 0.1,-1.5 0.4,-2.3 0.3,-0.8 0.7,-1.39999996 1.2,-1.99999996 0.5,-0.6 1.1,-1.1 1.8,-1.40000004 0.7,-0.4 1.5,-0.5 2.4,-0.5 0.9,0 1.8,0.2 2.5,0.5 0.7,0.40000004 1.3,0.80000004 1.8,1.40000004 0.5,0.6 0.8,1.19999996 1.1,1.99999996 0.2,0.7 0.4,1.5 0.4,2.3 -0.1,0.8 -0.2,1.6 -0.4,2.3 z"
       id="path4549"
       inkscape:connector-curvature="0"
       style="fill:#0c385a" /><path
       class="st0"
       d="m 288.3,-4.6507515 c -1.1,-1.1 -2.4,-2 -3.8,-2.6 -1.5,-0.6 -3.1,-0.9 -4.9,-0.9 -1.9,0 -3.6,0.3 -5.1,0.9 -1.6,0.6 -3,1.5 -4.1,2.6 -1.2,1.1 -2.1,2.5 -2.8,4.10000004 -0.7,1.59999996 -1,3.39999996 -1,5.39999996 0,2 0.3,3.9 1,5.4000005 0.7,1.6 1.7,2.9 2.9,4 1.2,1.099999 2.6,1.899999 4.2,2.499999 1.6,0.6 3.3,0.9 5.2,0.9 2.5,0 4.6,-0.4 6.5,-1.3 1.9,-0.9 3.4,-2.199999 4.5,-3.799999 l -5.5,-3.5000005 c -0.6,0.7 -1.3,1.4000005 -2.1,1.8000005 -0.9,0.5 -2,0.7 -3.2,0.7 -0.7,0 -1.4,-0.1 -2.1,-0.3 -0.7,-0.2 -1.3,-0.5 -1.8,-1 -0.5,-0.4000005 -1,-0.9000005 -1.3,-1.4000005 -0.3,-0.6 -0.5,-1.2 -0.6,-1.9 h 17.5 c 0,-0.3 0,-0.6 0,-0.9 v -1 c 0,-2.1 -0.3,-3.9 -0.9,-5.49999996 -0.7,-1.60000004 -1.6,-3.00000004 -2.6,-4.20000004 z m -14.2,6.7 c 0,-0.6 0.2,-1.19999996 0.5,-1.79999996 0.3,-0.6 0.7,-1.1 1.2,-1.50000004 0.5,-0.4 1.1,-0.8 1.7,-1 0.7,-0.2 1.4,-0.4 2.1,-0.4 1.6,0 2.8,0.5 3.6,1.4 0.8,0.90000004 1.2,2.00000004 1.2,3.3 z"
       id="path4551"
       inkscape:connector-curvature="0"
       style="fill:#0c385a" /><polygon
       class="st0"
       points="303.2,55 303.2,18.3 295,18.3 295,55 "
       id="polygon4553"
       style="fill:#0c385a"
       transform="translate(0,-38.150751)" /><path
       class="st0"
       d="m 176.3,-0.15075146 c -0.6,-1.60000004 -1.4,-3.00000004 -2.4,-4.10000004 -1,-1.1 -2.3,-2 -3.7,-2.6 -1.4,-0.6 -3,-0.9 -4.7,-0.9 -1.8,0 -3.4,0.3 -4.9,0.9 -1.5,0.6 -2.8,1.5 -4,2.6 -1.1,1.1 -2,2.5 -2.7,4.10000004 -0.7,1.59999996 -1,3.39999996 -1,5.39999996 V 17.249248 h 8 v -13.0999995 0 c 0,-2.2 1.8,-3.89999996 3.9,-3.89999996 2.1,0 3.8,1.69999996 3.9,3.79999996 0,0 0,13.2999995 0,13.2999995 h 8.1 V 7.4492485 c 0,-0.3 0,-0.6 0,-0.9 v -1 c 0,-2.3 0,-4.1 -0.5,-5.69999996 z"
       id="path4555"
       inkscape:connector-curvature="0"
       style="fill:#0c385a" /></g><g
     id="g4596"
     transform="translate(0,38.249249)"><g
       id="g4594"><linearGradient
         id="SVGID_1_"
         gradientUnits="userSpaceOnUse"
         x1="70.709396"
         y1="-2.5488"
         x2="25.2656"
         y2="76.162102"><stop
           offset="6.134970e-02"
           style="stop-color:#0F3759"
           id="stop4559" /><stop
           offset="0.6095"
           style="stop-color:#204570"
           id="stop4561" /><stop
           offset="1"
           style="stop-color:#284C7B"
           id="stop4563" /></linearGradient><path
         class="st1"
         d="M 67.6,0 C 51.9,0 39.2,12.7 39.2,29.5 V 44 c 0,7 -4.9,11.9 -10.8,11.9 C 22.6,55.9 17.6,51 17.6,44 V 0.7 H 0 V 44 C 0,60.9 12.7,73.5 28.4,73.5 44.1,73.5 56.8,60.8 56.8,44 V 29.5 c 0,-7 4.9,-11.9 10.8,-11.9 5.8,0 10.8,4.9 10.8,11.9 V 72.8 H 96 V 29.5 C 96,12.7 83.2,0 67.6,0"
         id="path4566"
         inkscape:connector-curvature="0"
         style="fill:url(#SVGID_1_)" /><linearGradient
         id="SVGID_2_"
         gradientUnits="userSpaceOnUse"
         x1="14.1989"
         y1="73.611298"
         x2="14.1989"
         y2="0.74409997"><stop
           offset="0"
           style="stop-color:#0F3759"
           id="stop4568" /><stop
           offset="6.305176e-02"
           style="stop-color:#133A5E"
           id="stop4570" /><stop
           offset="0.3232"
           style="stop-color:#1F446E"
           id="stop4572" /><stop
           offset="0.6148"
           style="stop-color:#264A78"
           id="stop4574" /><stop
           offset="1"
           style="stop-color:#284C7B"
           id="stop4576" /></linearGradient><path
         class="st2"
         d="M 17.6,61.7 V 44.1 0.7 H 0 V 44 C 0,60.9 12.7,73.5 28.4,73.5 22.6,73.6 17.6,68.7 17.6,61.7"
         id="path4579"
         inkscape:connector-curvature="0"
         style="fill:url(#SVGID_2_)" /><linearGradient
         id="SVGID_3_"
         gradientUnits="userSpaceOnUse"
         x1="81.774902"
         y1="72.869102"
         x2="81.774902"
         y2="6.3846528e-10"><stop
           offset="0"
           style="stop-color:#0F3759"
           id="stop4581" /><stop
           offset="6.305176e-02"
           style="stop-color:#133A5E"
           id="stop4583" /><stop
           offset="0.3232"
           style="stop-color:#1F446E"
           id="stop4585" /><stop
           offset="0.6148"
           style="stop-color:#264A78"
           id="stop4587" /><stop
           offset="1"
           style="stop-color:#284C7B"
           id="stop4589" /></linearGradient><path
         class="st3"
         d="m 67.6,0 c 5.8,0 10.8,4.9 10.8,11.9 V 29.5 72.8 H 96 V 29.5 C 96,12.7 83.2,0 67.6,0"
         id="path4592"
         inkscape:connector-curvature="0"
         style="fill:url(#SVGID_3_)" /></g></g></svg>